<svg viewBox="0 0 512 512" xmlns="http://www.w3.org/2000/svg">
  <!-- Background -->
  <rect width="512" height="512" fill="#9333EA" rx="128"/>
  
  <!-- Puzzle piece (white) -->
  <path fill="white" d="
    M 356,176 
    H 296 V 116 
    C 296,100 283,87 267,87 
    H 245 
    C 229,87 216,100 216,116 
    V 176 
    H 156 
    C 140,176 127,189 127,205 
    V 227 
    C 127,243 140,256 156,256 
    H 216 
    V 316 
    C 216,332 229,345 245,345 
    H 267 
    C 283,345 296,332 296,316 
    V 256 
    H 356 
    C 372,256 385,243 385,227 
    V 205 
    C 385,189 372,176 356,176 
    Z
    M 267,316 
    H 245 
    V 236 
    H 165 
    V 205 
    H 245 
    V 116 
    H 267 
    V 205 
    H 347 
    V 227 
    H 267 
    V 316 
    Z"/>
</svg>