<svg viewBox="0 0 512 512" xmlns="http://www.w3.org/2000/svg">
  <!-- Purple puzzle piece -->
  <path fill="#9333EA" d="M405.333 128h-85.333V42.667C320 19.093 300.907 0 277.333 0h-42.667C211.093 0 192 19.093 192 42.667V128h-85.333C83.093 128 64 147.093 64 170.667v42.667C64 236.907 83.093 256 106.667 256H192v85.333C192 364.907 211.093 384 234.667 384h42.667C300.907 384 320 364.907 320 341.333V256h85.333C428.907 256 448 236.907 448 213.333v-42.667C448 147.093 428.907 128 405.333 128zM277.333 341.333h-42.667v-128h-128v-42.667h128v-128h42.667v128h128v42.667h-128v128z"/>
</svg>